<?xml version="1.0" standalone="no"?>
<!DOCTYPE svg PUBLIC "-//W3C//DTD SVG 20010904//EN"
 "http://www.w3.org/TR/2001/REC-SVG-20010904/DTD/svg10.dtd">
<svg version="1.0" xmlns="http://www.w3.org/2000/svg"
 width="640.000000pt" height="640.000000pt" viewBox="0 0 640.000000 640.000000"
 preserveAspectRatio="xMidYMid meet">

<g transform="translate(0.000000,640.000000) scale(0.100000,-0.100000)"
fill="#000000" stroke="none">
<path d="M1598 6393 c881 -2 2323 -2 3205 0 881 1 160 2 -1603 2 -1763 0
-2484 -1 -1602 -2z"/>
<path d="M3458 5915 c-3 -4 -12 -7 -20 -8 -7 -2 -13 -7 -13 -12 0 -11 2 -11
55 4 19 5 30 9 23 10 -6 1 -18 3 -25 6 -8 3 -17 3 -20 0z"/>
<path d="M3550 5901 c0 -12 29 -23 41 -15 18 10 9 24 -16 24 -14 0 -25 -4 -25
-9z"/>
<path d="M3767 5894 c-11 -12 3 -24 29 -24 27 0 32 15 8 24 -20 8 -29 8 -37 0z"/>
<path d="M3485 5840 c3 -5 12 -10 20 -10 8 0 17 5 20 10 4 6 -5 10 -20 10 -15
0 -24 -4 -20 -10z"/>
<path d="M3850 5829 c0 -21 -1 -21 -18 -6 -31 28 -58 17 -30 -11 10 -10 10
-15 -1 -22 -12 -7 -10 -14 10 -42 40 -53 71 -108 62 -108 -5 0 -25 21 -44 47
-55 75 -68 96 -63 104 4 8 -27 29 -43 29 -18 0 -6 -57 18 -90 43 -58 43 -67 0
-22 -42 42 -71 54 -71 29 0 -8 9 -25 21 -38 26 -30 6 -39 -25 -10 -24 22 -46
28 -46 11 0 -5 -15 -10 -32 -11 l-33 -1 31 -9 c30 -8 134 -118 134 -141 0 -6
-20 6 -44 26 -24 20 -47 36 -50 36 -17 0 1 -25 59 -85 36 -37 65 -68 65 -70 0
-2 -27 -25 -60 -52 -33 -26 -60 -52 -60 -56 0 -5 5 -5 11 -1 6 3 15 1 19 -6 6
-10 24 0 69 40 34 29 66 61 72 72 7 13 16 17 30 13 21 -7 23 -2 9 24 -8 15 -6
17 15 13 15 -2 25 0 25 7 0 6 13 11 30 11 25 0 32 -6 45 -36 17 -42 18 -44 7
-44 -5 0 -14 12 -21 26 -6 15 -14 25 -16 22 -8 -8 24 -183 45 -238 25 -67 36
-78 83 -84 35 -5 37 -4 37 22 0 35 26 72 50 72 11 0 27 -16 42 -42 24 -44 28
-47 96 -74 23 -10 42 -21 42 -26 0 -10 67 -11 74 0 2 4 -12 40 -32 79 -20 40
-33 76 -29 79 10 10 35 -25 42 -59 4 -16 18 -33 35 -42 41 -21 43 -48 30 -304
-10 -209 -17 -275 -39 -360 -5 -20 -15 -55 -21 -78 -29 -112 -41 15 -15 154
19 97 19 136 3 131 -8 -3 -14 -25 -16 -52 -2 -30 -8 -49 -18 -53 -10 -4 -13
-14 -8 -38 8 -46 -68 -269 -105 -305 -14 -14 -31 -34 -37 -45 -8 -13 -7 1 2
34 8 32 26 68 42 85 31 33 56 110 68 206 4 30 11 60 16 67 5 6 10 44 11 85 2
63 0 73 -16 76 -16 3 -17 -1 -12 -32 7 -35 -20 -221 -35 -241 -4 -5 -15 -35
-25 -65 -10 -30 -21 -59 -26 -65 -5 -5 -9 -16 -9 -25 0 -8 -9 -23 -20 -33 -11
-9 -20 -23 -20 -31 0 -8 -7 -16 -15 -20 -10 -4 -15 1 -15 14 0 28 31 101 40
95 13 -8 37 57 50 135 6 41 18 113 26 161 8 47 17 110 20 140 3 29 10 62 15
71 6 11 5 19 -2 23 -6 4 -12 5 -13 4 -2 -2 -11 -51 -21 -109 -23 -142 -37
-194 -86 -334 -29 -80 -48 -120 -59 -123 -10 -3 -26 -23 -35 -46 -12 -29 -19
-37 -22 -25 -2 9 1 26 6 37 6 11 11 33 11 49 0 17 9 37 21 48 29 26 37 50 65
193 22 111 24 145 9 129 -3 -3 -15 -49 -26 -104 -12 -54 -27 -103 -34 -109 -7
-5 -21 -35 -31 -65 -20 -60 -44 -97 -44 -68 0 9 11 47 24 85 13 37 29 89 35
114 6 26 14 55 17 65 6 17 5 17 -8 4 -8 -8 -20 -34 -27 -57 -12 -44 -51 -80
-51 -48 0 9 5 25 11 37 6 11 8 22 5 25 -3 4 -15 -17 -27 -46 -17 -41 -24 -49
-35 -40 -8 6 -14 18 -14 26 0 29 -20 0 -35 -50 -16 -57 -53 -123 -62 -113 -7
6 16 126 27 141 4 6 19 39 33 75 62 160 64 199 3 48 -71 -175 -108 -248 -124
-248 -10 0 -12 6 -8 23 4 12 13 51 21 87 9 36 19 82 24 103 5 20 5 37 1 37 -7
0 -36 -73 -75 -192 -11 -32 -22 -58 -26 -58 -4 0 -13 -16 -19 -35 -6 -19 -16
-35 -21 -35 -14 0 -11 42 6 73 20 39 30 97 16 97 -6 0 -11 -5 -11 -12 0 -6 -2
-9 -4 -7 -5 5 16 89 26 105 4 5 13 28 21 50 8 21 22 56 31 77 9 21 12 37 6 37
-16 0 -80 -153 -119 -282 -22 -74 -49 -133 -58 -125 -3 3 0 20 6 39 41 131 41
127 23 137 -15 9 -15 14 8 58 13 26 26 51 28 56 2 4 -1 7 -7 7 -15 0 -76 -128
-150 -312 -31 -79 -61 -141 -67 -139 -10 5 -6 41 7 57 16 20 49 126 49 159 0
17 9 67 20 110 22 86 25 114 11 100 -5 -6 -17 -48 -26 -95 -26 -130 -79 -306
-98 -325 -6 -7 -7 7 -2 39 6 43 5 48 -8 38 -7 -6 -17 -9 -20 -5 -10 10 13 32
28 27 8 -3 17 7 24 27 11 32 7 54 -10 44 -11 -8 -11 4 1 123 6 53 18 122 27
152 28 98 38 490 12 490 -8 0 -10 -19 -6 -57 4 -51 -11 -213 -42 -453 -10 -76
-34 -183 -72 -321 -11 -41 -19 -82 -17 -90 1 -8 -2 -16 -7 -18 -11 -4 -37 62
-61 152 -14 53 -14 62 0 91 26 55 69 349 47 316 -6 -8 -11 -26 -11 -40 0 -14
-11 -41 -24 -60 -12 -19 -29 -60 -36 -90 -7 -30 -15 -59 -18 -64 -2 -4 -17 11
-32 36 -23 37 -29 62 -39 163 -20 200 -53 375 -71 375 -5 0 -2 -21 6 -47 7
-27 20 -106 28 -178 8 -71 18 -145 22 -162 4 -22 3 -33 -5 -33 -6 0 -11 4 -11
9 0 30 -43 286 -56 331 -33 119 -39 134 -56 154 -23 28 -23 9 2 -39 21 -42 26
-81 10 -87 -10 -3 2 -128 35 -350 12 -82 15 -128 8 -155 l-9 -38 -26 70 c-15
39 -30 102 -33 140 -4 39 -13 103 -21 144 -8 40 -12 82 -9 92 5 16 2 18 -17
16 -20 -3 -24 -12 -34 -73 -14 -80 -13 -169 1 -169 5 0 8 26 7 60 -1 33 2 67
8 75 7 11 10 4 10 -27 0 -31 4 -43 14 -43 17 0 26 -61 29 -194 1 -64 -2 -90
-10 -93 -9 -3 -13 7 -13 30 0 19 -3 62 -6 95 l-7 61 -19 -24 c-15 -20 -18 -34
-13 -69 5 -33 3 -51 -9 -68 -15 -21 -16 -21 -17 -3 -1 11 -1 34 0 52 2 20 -3
34 -13 40 -14 8 -15 22 -6 113 6 58 15 129 20 159 14 77 13 86 -5 71 -8 -6
-19 -9 -24 -5 -6 3 -11 -4 -12 -17 0 -13 -2 -75 -3 -138 -4 -149 -4 -146 -17
-133 -7 7 -9 46 -6 114 7 128 16 181 33 194 7 5 16 22 20 38 8 34 -19 38 -40
5 -32 -52 -57 -406 -28 -415 18 -7 16 -97 -4 -113 -11 -10 -14 -23 -9 -52 4
-21 3 -38 -2 -38 -10 0 -33 130 -25 144 2 4 9 2 14 -5 10 -15 7 31 -11 167
-10 73 -9 92 18 230 17 89 46 193 70 258 23 60 39 111 37 114 -3 2 -8 -7 -12
-22 -4 -15 -13 -26 -23 -26 -25 0 -38 -34 -62 -166 -12 -64 -28 -121 -34 -128
-20 -20 -43 -69 -50 -109 -4 -21 -10 -36 -12 -33 -10 10 -26 134 -26 204 0 56
-3 72 -15 72 -15 0 -13 35 3 74 7 16 5 17 -12 7 -12 -6 -24 -23 -28 -38 -3
-16 -13 -41 -20 -58 -23 -49 -74 -240 -90 -337 -3 -21 -11 -38 -17 -38 -24 0
12 202 53 297 24 57 24 72 -1 41 -16 -22 -49 -122 -66 -200 -5 -25 -13 -127
-14 -171 0 -16 -4 -26 -10 -22 -14 9 -12 74 5 177 15 96 33 168 45 183 4 6 10
28 13 50 4 22 16 59 27 83 11 23 25 53 30 67 5 14 17 25 26 25 12 0 14 6 9 29
-5 25 0 36 29 69 39 43 43 52 22 52 -32 0 -113 -162 -166 -334 -12 -38 -30
-69 -50 -88 -22 -20 -30 -23 -26 -11 3 10 10 43 16 73 11 60 83 277 108 325
14 28 14 29 -2 16 -28 -24 -79 -155 -127 -329 -15 -54 -33 -94 -51 -114 -15
-17 -28 -37 -28 -43 0 -6 -7 -20 -15 -31 -15 -18 -15 -16 -10 26 15 106 84
341 113 388 8 12 13 24 11 27 -10 9 -28 -13 -53 -62 -14 -29 -42 -65 -61 -80
-37 -30 -45 -50 -85 -210 -15 -60 -34 -56 -27 5 6 42 5 45 -8 29 -7 -11 -17
-38 -21 -60 -3 -23 -17 -53 -30 -65 -13 -13 -31 -44 -40 -69 -15 -39 -16 -58
-7 -140 15 -140 30 -138 29 4 -1 124 8 193 25 193 6 0 7 -19 2 -52 -4 -29 -8
-186 -8 -348 0 -266 2 -299 18 -323 24 -37 39 -34 20 4 -18 36 -35 227 -24
267 8 27 8 27 29 -15 12 -23 22 -51 22 -61 0 -20 55 -71 164 -152 l58 -44 -5
-58 c-3 -32 -1 -58 3 -58 15 0 21 38 14 85 -6 41 -4 45 14 45 12 0 24 -5 27
-11 4 -6 14 -8 22 -5 8 4 28 -5 45 -19 46 -39 51 -30 13 21 -19 25 -35 52 -35
60 0 8 -7 17 -15 20 -11 5 -12 11 -5 25 9 15 15 17 38 8 15 -6 36 -18 47 -27
11 -10 50 -33 86 -52 65 -34 67 -35 72 -80 3 -25 1 -52 -4 -61 -6 -11 -4 -21
6 -29 7 -6 11 -18 8 -26 -3 -8 0 -14 5 -14 12 0 122 127 122 141 0 5 5 9 11 9
7 0 9 -9 5 -22 -12 -39 -23 -129 -17 -132 15 -8 68 34 83 65 22 48 46 67 54
45 3 -9 1 -23 -6 -31 -7 -9 -8 -15 -2 -15 5 0 15 14 21 30 5 17 15 30 22 30
18 0 5 68 -24 125 -62 121 -76 153 -82 193 -7 42 -6 42 23 42 17 0 33 6 36 13
3 7 5 6 3 -3 -1 -9 8 -27 21 -40 12 -14 31 -36 41 -49 22 -30 41 -20 41 20 0
22 5 29 20 29 24 0 25 17 4 69 -16 41 -16 82 1 82 11 1 65 -146 64 -175 0 -12
-3 -15 -6 -8 -2 6 -9 12 -14 12 -6 0 -7 -5 -4 -11 4 -6 7 -26 7 -45 0 -39 12
-51 34 -33 13 10 17 10 24 -1 4 -7 4 -20 0 -29 -8 -15 -50 -163 -50 -175 0 -3
7 -6 16 -6 8 0 20 14 25 30 6 17 15 30 20 30 14 0 11 -58 -4 -67 -14 -9 -60
-78 -70 -106 -4 -11 -16 -21 -27 -24 -16 -4 -19 -11 -14 -27 4 -11 7 -30 8
-41 1 -12 11 -21 26 -25 26 -6 27 -12 14 -77 -5 -27 -3 -33 10 -33 9 0 21 -11
26 -25 10 -25 34 -33 45 -15 12 20 27 10 23 -15 -4 -21 -3 -23 9 -14 19 16 27
5 19 -26 -5 -18 -12 -25 -21 -21 -17 6 -21 -29 -6 -53 10 -16 20 -4 36 43 18
52 35 43 19 -10 -18 -60 -7 -78 17 -25 10 23 23 41 29 41 13 0 13 -8 -5 -66
-8 -27 -15 -57 -15 -67 0 -25 22 -17 38 14 11 22 12 20 6 -20 -8 -52 10 -50
20 1 4 18 14 42 22 53 15 19 16 18 9 -15 -3 -19 -9 -44 -12 -54 -4 -15 -1 -18
12 -13 9 4 20 7 25 7 4 0 10 10 14 22 7 27 22 15 28 -22 4 -23 5 -23 15 10 8
25 11 29 12 13 2 -46 19 -30 31 29 16 85 29 116 40 98 4 -7 4 -24 -1 -37 -12
-32 -11 -46 1 -38 6 4 10 -5 10 -19 0 -30 14 -34 30 -8 9 13 10 9 5 -20 -6
-36 7 -53 19 -25 3 6 3 -9 0 -36 -4 -37 -2 -48 10 -53 9 -3 16 -14 16 -23 0
-10 3 -21 6 -24 13 -12 43 14 47 40 l4 28 2 -28 c0 -16 -4 -37 -10 -49 -6 -11
-9 -22 -6 -24 7 -8 57 94 57 116 0 11 7 20 15 20 8 0 22 14 30 31 10 18 23 29
33 28 16 -2 29 2 80 22 17 7 24 5 29 -6 4 -12 9 -13 19 -4 7 6 18 8 23 5 5 -4
12 -2 16 4 14 23 22 7 23 -42 0 -29 5 -64 11 -78 9 -20 10 -5 7 75 -4 99 -3
101 35 183 22 45 44 82 49 82 6 0 10 7 10 15 0 15 19 39 102 125 45 47 68 61
68 41 0 -5 -12 -24 -26 -41 -15 -17 -23 -34 -19 -38 8 -8 84 77 85 95 0 7 26
29 58 49 33 21 67 52 79 73 48 81 94 174 109 218 9 27 20 52 25 57 14 15 11
-18 -7 -69 -8 -26 -13 -52 -11 -58 9 -28 40 117 48 228 13 175 -10 490 -48
648 -12 52 -20 67 -34 67 -10 0 -23 8 -28 18 -16 27 -13 0 4 -31 8 -15 28 -78
46 -140 26 -96 32 -135 36 -268 4 -99 2 -162 -4 -174 -8 -13 -7 -24 1 -37 9
-16 8 -21 -6 -29 -12 -7 -18 -22 -18 -45 0 -35 -66 -184 -82 -184 -11 0 -10 8
7 90 11 52 13 87 6 128 -5 31 -5 59 -1 62 4 3 13 46 19 95 13 108 14 216 2
197 -5 -9 -11 13 -15 60 -9 84 -32 243 -42 275 -4 16 -1 25 10 29 23 9 21 21
-24 110 -58 114 -67 128 -72 113 -3 -8 -11 -3 -24 14 -10 15 -34 48 -52 73
-19 25 -32 48 -29 50 6 6 29 -16 63 -62 15 -19 31 -34 37 -34 6 0 24 -12 41
-27 34 -31 28 -21 -30 51 -64 81 -135 142 -203 175 -55 26 -69 27 -47 2 16
-17 16 -19 -1 -25 -12 -5 -23 1 -36 18 -25 34 -33 33 -48 -9 -10 -26 -19 -35
-35 -35 -13 0 -26 5 -29 10 -3 6 -12 10 -20 10 -12 0 -12 -5 1 -35 19 -45 18
-65 -2 -37 -19 27 -34 29 -27 2 8 -30 -4 -24 -22 10 -19 36 -19 40 0 40 18 0
19 -1 -1 46 -9 21 -25 45 -35 52 -10 7 -19 17 -19 22 0 5 -16 35 -37 67 -20
31 -36 68 -37 82 -1 33 -36 43 -36 10z m150 -325 c21 -55 4 -60 -34 -9 l-27
35 26 0 c18 0 28 -7 35 -26z m487 -294 c30 -61 65 -165 70 -213 3 -29 10 -58
16 -65 6 -8 7 -48 3 -106 -5 -77 -4 -96 9 -106 17 -14 21 -60 5 -60 -5 0 -10
14 -10 32 0 47 -10 28 -14 -28 -7 -86 -28 -227 -36 -248 -7 -17 -9 -13 -11 19
-1 22 -1 67 -1 100 1 33 -2 74 -7 90 l-9 30 -1 -32 c-1 -32 -33 -181 -47 -218
-7 -19 -7 -19 9 -3 9 9 17 28 17 42 0 14 5 26 11 26 6 0 8 -8 5 -17 -2 -10 -8
-37 -11 -60 -5 -30 -16 -50 -36 -67 -16 -14 -29 -29 -29 -33 0 -5 -9 -9 -21
-10 -12 -1 -27 -10 -35 -20 -13 -17 -13 -17 -14 4 0 12 9 46 21 75 68 170 92
328 93 605 1 227 1 232 -21 255 -30 32 -29 40 4 36 17 -2 32 -12 40 -28z
m-1850 -224 c-3 -35 0 -54 9 -61 12 -9 27 -98 39 -243 4 -48 2 -67 -10 -78 -8
-9 -19 -13 -24 -9 -5 3 -11 -7 -13 -22 -3 -26 -4 -27 -15 -8 -18 32 -22 163
-7 250 16 89 17 101 8 93 -8 -9 -45 -177 -51 -238 -5 -43 -8 -49 -13 -30 -4
16 -12 24 -23 22 -19 -3 -24 23 -7 33 6 4 8 16 5 26 -9 28 31 190 74 302 17
44 34 22 28 -37z m443 -266 c12 -83 16 -138 10 -144 -5 -5 -11 0 -14 15 -12
60 -46 307 -45 329 2 48 29 -61 49 -200z m-641 134 c-10 -36 -21 -103 -25
-150 -4 -46 -11 -84 -15 -84 -17 0 -7 99 20 205 5 22 12 52 16 68 3 15 9 27
14 27 5 0 0 -30 -10 -66z m-233 -85 c-8 -80 -25 -112 -26 -48 0 44 16 109 27
109 3 0 3 -27 -1 -61z m121 -31 c-3 -7 -5 -2 -5 12 0 14 2 19 5 13 2 -7 2 -19
0 -25z m2254 -211 c-13 -13 -15 33 -3 84 6 32 7 30 10 -20 2 -30 -2 -59 -7
-64z m-2074 61 c-3 -8 -6 -5 -6 6 -1 11 2 17 5 13 3 -3 4 -12 1 -19z m-93
-157 c-9 -10 -16 11 -24 74 -12 100 2 114 17 15 6 -46 10 -87 7 -89z m144 147
c9 -20 11 -20 11 -5 2 39 26 8 38 -49 16 -75 16 -87 1 -82 -12 4 -20 25 -33
82 -5 23 -9 26 -15 16 -7 -11 -11 -8 -19 13 -6 16 -11 33 -11 38 0 17 17 9 28
-13z m-268 -74 c5 -32 12 -76 16 -96 10 -57 -12 -47 -24 10 -19 89 -25 168
-13 156 7 -6 16 -38 21 -70z m968 -15 c-8 -35 -19 -64 -27 -67 -11 -4 -12 2
-7 24 4 16 13 53 19 81 7 35 14 48 19 39 5 -8 2 -42 -4 -77z m-894 44 c9 -57
7 -92 -3 -73 -14 24 -25 110 -13 110 5 0 12 -17 16 -37z m326 -57 c-1 -45 -17
-13 -24 49 l-7 50 16 -34 c8 -18 15 -47 15 -65z m-246 33 c6 -46 3 -70 -8 -58
-10 10 -17 109 -8 109 5 0 12 -23 16 -51z m413 -38 c-3 -52 -11 -88 -22 -103
-16 -22 -17 -19 -11 70 6 97 10 112 28 112 7 0 9 -26 5 -79z m-351 11 c6 -30
5 -32 -17 -29 -18 3 -25 11 -26 33 -3 27 -2 27 7 7 14 -34 23 -28 16 9 -4 22
-3 29 4 22 5 -5 13 -24 16 -42z m229 -27 c6 -31 5 -37 -5 -29 -6 6 -14 31 -16
55 -6 54 11 34 21 -26z m365 -4 c0 -30 -29 -67 -31 -40 -2 22 3 63 8 72 9 15
23 -5 23 -32z m510 -23 c-19 -83 -20 -88 -36 -88 -19 0 -18 23 5 73 10 23 21
51 25 61 13 38 18 6 6 -46z m720 -87 c0 -38 -65 -199 -76 -188 -3 2 2 31 12
63 9 33 17 70 18 84 3 30 26 80 38 80 4 0 8 -17 8 -39z m-2085 20 c3 -5 1 -12
-5 -16 -5 -3 -10 1 -10 9 0 18 6 21 15 7z m515 -40 c13 -26 13 -31 -3 -31 -8
0 -19 11 -25 25 -9 20 -9 25 3 25 8 0 19 -9 25 -19z m-510 -52 c0 -6 -4 -7
-10 -4 -5 3 -10 11 -10 16 0 6 5 7 10 4 6 -3 10 -11 10 -16z m2210 6 c0 -8 -4
-15 -10 -15 -5 0 -10 7 -10 15 0 8 5 15 10 15 6 0 10 -7 10 -15z m-1922 -54
c3 -8 -1 -12 -9 -9 -7 2 -15 10 -17 17 -3 8 1 12 9 9 7 -2 15 -10 17 -17z
m2048 -66 c-1 -33 -17 -47 -31 -25 -10 17 -25 11 -25 -9 0 -11 -4 -23 -10 -26
-23 -14 -8 39 19 66 38 38 48 37 47 -6z m-1194 -31 c-5 -24 -14 -39 -22 -39
-20 0 -14 44 8 66 22 22 24 19 14 -27z m363 -94 c-15 -22 -32 -40 -37 -40 -11
0 -4 12 29 58 35 47 42 31 8 -18z m-305 23 c0 -5 -11 -26 -25 -48 -19 -32 -24
-36 -25 -19 0 12 7 27 15 34 8 7 15 19 15 26 0 8 5 14 10 14 6 0 10 -3 10 -7z
m363 -8 c-3 -9 -8 -14 -10 -11 -3 3 -2 9 2 15 9 16 15 13 8 -4z m381 0 c3 -10
-1 -18 -12 -22 -9 -4 -20 -11 -24 -17 -14 -21 -21 5 -8 29 15 28 35 33 44 10z
m-814 -30 c-16 -42 -49 -103 -60 -110 -13 -8 -13 -7 6 51 17 49 40 84 55 84 5
0 4 -11 -1 -25z m1054 -40 c-4 -8 -11 -15 -16 -15 -6 0 -5 6 2 15 7 8 14 15
16 15 2 0 1 -7 -2 -15z m-984 -22 c0 -5 -4 -15 -10 -23 -11 -18 -25 -7 -17 15
6 15 27 21 27 8z m298 -25 c-2 -6 -10 -14 -16 -16 -7 -2 -10 2 -6 12 7 18 28
22 22 4z m-64 -72 c-6 -16 -24 -23 -24 -8 0 10 22 33 27 28 2 -2 1 -11 -3 -20z
m-442 -28 c-7 -7 -12 -8 -12 -2 0 6 3 14 7 17 3 4 9 5 12 2 2 -3 -1 -11 -7
-17z m641 -9 c-10 -17 -27 -38 -37 -47 -18 -16 -18 -16 -8 4 6 11 18 26 26 34
9 7 16 19 16 26 0 8 5 14 11 14 5 0 2 -14 -8 -31z m-273 -19 c0 -5 -5 -10 -11
-10 -5 0 -7 5 -4 10 3 6 8 10 11 10 2 0 4 -4 4 -10z m-69 -33 c-8 -8 -11 -7
-11 4 0 20 13 34 18 19 3 -7 -1 -17 -7 -23z m289 23 c0 -5 -7 -10 -16 -10 -8
0 -12 5 -9 10 3 6 10 10 16 10 5 0 9 -4 9 -10z m-156 -44 c-6 -16 -24 -23 -24
-8 0 10 22 33 27 28 2 -2 1 -11 -3 -20z m506 -36 c-11 -21 -50 -46 -50 -33 0
17 32 53 46 53 12 0 12 -4 4 -20z m-559 -78 c-5 -10 -17 -25 -26 -32 -13 -11
-15 -10 -9 6 9 25 24 44 36 44 5 0 5 -8 -1 -18z m-191 -12 c17 -32 1 -44 -21
-16 -23 29 -24 36 -4 36 8 0 19 -9 25 -20z m366 -14 c-24 -37 -2 -41 28 -5 15
17 29 29 32 27 2 -3 -23 -33 -55 -67 l-60 -61 5 42 c3 24 15 53 26 66 29 30
44 28 24 -2z"/>
<path d="M2661 4664 c0 -11 3 -14 6 -6 3 7 2 16 -1 19 -3 4 -6 -2 -5 -13z"/>
<path d="M2630 4635 c1 -26 2 -28 11 -12 8 14 8 22 0 30 -8 8 -11 3 -11 -18z"/>
<path d="M3328 5833 c7 -3 16 -2 19 1 4 3 -2 6 -13 5 -11 0 -14 -3 -6 -6z"/>
<path d="M3263 5823 c9 -2 23 -2 30 0 6 3 -1 5 -18 5 -16 0 -22 -2 -12 -5z"/>
<path d="M3473 5693 c15 -2 37 -2 50 0 12 2 0 4 -28 4 -27 0 -38 -2 -22 -4z"/>
<path d="M3880 5445 c0 -8 -5 -15 -10 -15 -7 0 -8 -18 -4 -50 4 -34 3 -50 -5
-50 -6 0 -13 11 -17 24 -3 14 -13 31 -22 40 -18 15 -18 15 -139 -96 -37 -33
-26 -43 15 -12 36 28 36 28 20 4 -37 -52 -40 -60 -22 -60 9 0 25 11 36 25 11
14 24 25 30 25 6 0 4 -8 -5 -18 -21 -23 -22 -42 -2 -42 9 0 18 12 22 30 9 47
27 50 19 4 -14 -80 -18 -94 -27 -94 -5 0 -9 -13 -9 -30 0 -20 5 -30 15 -30 9
0 15 9 15 25 0 14 5 25 10 25 7 0 8 -27 4 -79 -4 -45 -3 -81 3 -84 5 -3 7 10
5 29 -3 27 1 40 17 55 11 11 23 32 27 47 12 55 13 56 32 38 29 -25 34 -20 26
29 -8 54 -1 57 22 10 9 -19 21 -35 26 -35 12 0 3 45 -23 120 -11 30 -22 74
-24 97 -2 24 -6 52 -10 63 -7 23 -25 27 -25 5z m-76 -100 c3 -8 1 -15 -4 -15
-6 0 -10 7 -10 15 0 8 2 15 4 15 2 0 6 -7 10 -15z"/>
<path d="M4540 5331 c0 -4 9 -19 20 -33 10 -14 28 -49 40 -79 27 -72 42 -99
52 -99 24 0 -8 86 -68 182 -23 35 -44 50 -44 29z"/>
<path d="M2906 5313 c-6 -14 -5 -15 5 -6 7 7 10 15 7 18 -3 3 -9 -2 -12 -12z"/>
<path d="M2756 5295 c-20 -30 -86 -198 -86 -217 0 -23 18 13 41 82 12 36 25
69 30 75 5 5 9 17 9 27 0 10 4 18 9 18 9 0 24 30 18 37 -3 2 -12 -8 -21 -22z"/>
<path d="M2761 5214 c0 -11 3 -14 6 -6 3 7 2 16 -1 19 -3 4 -6 -2 -5 -13z"/>
<path d="M3680 5145 c0 -8 4 -15 9 -15 5 0 11 7 15 15 3 9 0 15 -9 15 -8 0
-15 -7 -15 -15z"/>
<path d="M3349 5070 c0 -3 -2 -50 -4 -105 -2 -99 -19 -390 -30 -535 -4 -41 -3
-72 0 -68 7 6 37 311 36 363 0 17 4 55 9 85 14 80 15 239 1 253 -6 6 -11 9
-12 7z"/>
<path d="M3978 4817 c-24 -71 -22 -83 3 -27 11 24 19 52 17 62 -2 10 -11 -6
-20 -35z"/>
<path d="M4631 4844 c0 -11 3 -14 6 -6 3 7 2 16 -1 19 -3 4 -6 -2 -5 -13z"/>
<path d="M3552 4694 c-17 -62 -8 -67 12 -8 19 55 18 54 8 54 -4 0 -13 -21 -20
-46z"/>
<path d="M480 4540 c0 -5 5 -10 11 -10 5 0 7 5 4 10 -3 6 -8 10 -11 10 -2 0
-4 -4 -4 -10z"/>
<path d="M4161 3483 c0 -12 -4 -30 -7 -40 -5 -14 -4 -15 5 -7 7 6 11 24 8 40
-3 21 -4 23 -6 7z"/>
<path d="M2935 3274 c-33 -7 -75 -11 -92 -8 -40 7 -41 2 -7 -21 25 -16 30 -16
105 6 43 13 79 27 79 32 0 9 -10 8 -85 -9z"/>
<path d="M3048 3273 c6 -2 18 -2 25 0 6 3 1 5 -13 5 -14 0 -19 -2 -12 -5z"/>
<path d="M4123 3220 c0 -25 2 -35 4 -22 2 12 2 32 0 45 -2 12 -4 2 -4 -23z"/>
<path d="M4132 3130 c0 -19 2 -27 5 -17 2 9 2 25 0 35 -3 9 -5 1 -5 -18z"/>
<path d="M4606 2658 c33 -35 67 -74 77 -88 l18 -25 -7 25 c-6 26 -121 150
-138 150 -5 0 17 -28 50 -62z"/>
<path d="M4500 2681 c0 -5 7 -11 15 -15 8 -3 15 -1 15 3 0 5 -7 11 -15 15 -8
3 -15 1 -15 -3z"/>
<path d="M3055 2528 c-3 -7 -1 -26 4 -43 9 -29 9 -29 10 13 1 41 -5 54 -14 30z"/>
<path d="M3058 2410 c-12 -38 -10 -66 3 -53 6 6 9 26 7 44 -3 32 -3 33 -10 9z"/>
<path d="M4915 2254 c16 -27 35 -61 43 -76 7 -15 17 -30 21 -32 4 -3 35 -58
67 -122 32 -64 60 -109 62 -101 4 20 -32 99 -74 163 -19 28 -34 56 -34 62 0
10 -10 27 -65 114 -34 53 -52 46 -20 -8z"/>
<path d="M2990 2166 c0 -7 -9 -25 -20 -38 -10 -14 -17 -28 -13 -31 3 -4 -2
-18 -11 -31 -20 -32 -20 -37 2 -29 23 9 32 23 32 51 0 12 6 25 14 28 15 6 19
64 4 64 -4 0 -8 -6 -8 -14z"/>
<path d="M5131 1845 c28 -65 46 -84 23 -25 -9 25 -23 52 -31 60 -8 9 -5 -6 8
-35z"/>
<path d="M5201 1680 c-1 -18 16 -46 23 -40 2 3 -2 16 -9 30 -8 15 -14 19 -14
10z"/>
<path d="M5251 1535 c0 -18 28 -61 29 -44 0 8 -7 24 -15 35 -8 10 -14 15 -14
9z"/>
<path d="M5286 1437 c3 -10 9 -15 12 -12 3 3 0 11 -7 18 -10 9 -11 8 -5 -6z"/>
<path d="M5310 1375 c0 -5 5 -17 10 -25 5 -8 10 -10 10 -5 0 6 -5 17 -10 25
-5 8 -10 11 -10 5z"/>
<path d="M2998 1281 c-26 -26 -22 -34 7 -15 14 9 25 20 25 25 0 14 -13 10 -32
-10z"/>
<path d="M2582 1260 c0 -14 2 -19 5 -12 2 6 2 18 0 25 -3 6 -5 1 -5 -13z"/>
<path d="M2566 1205 c-9 -26 -7 -32 5 -12 6 10 9 21 6 23 -2 3 -7 -2 -11 -11z"/>
<path d="M5367 1191 c-3 -12 5 -41 18 -67 12 -25 31 -77 41 -116 17 -63 35
-90 50 -75 3 3 -10 41 -29 84 -19 43 -40 101 -47 128 -15 60 -25 74 -33 46z"/>
<path d="M2867 1113 c-11 -13 -17 -27 -14 -30 3 -2 13 7 23 21 22 34 15 42 -9
9z"/>
<path d="M2827 1052 c-19 -20 -23 -37 -7 -27 10 6 33 45 27 45 -2 0 -11 -8
-20 -18z"/>
<path d="M2497 965 c-10 -7 -14 -16 -9 -19 5 -3 15 1 22 9 17 21 9 27 -13 10z"/>
<path d="M2757 914 c-41 -83 -90 -204 -84 -210 2 -2 16 29 32 68 15 40 43 102
62 137 18 35 31 66 29 69 -3 2 -20 -27 -39 -64z"/>
<path d="M5461 894 c0 -11 3 -14 6 -6 3 7 2 16 -1 19 -3 4 -6 -2 -5 -13z"/>
<path d="M5465 823 c9 -53 13 -63 25 -63 13 0 13 15 -1 63 -5 20 -14 37 -20
37 -6 0 -7 -15 -4 -37z"/>
<path d="M5554 783 c9 -18 18 -33 20 -33 9 0 -8 41 -22 52 -13 11 -12 8 2 -19z"/>
<path d="M3645 760 c3 -5 8 -10 11 -10 2 0 4 5 4 10 0 6 -5 10 -11 10 -5 0 -7
-4 -4 -10z"/>
<path d="M5580 731 c0 -6 4 -13 10 -16 6 -3 7 1 4 9 -7 18 -14 21 -14 7z"/>
<path d="M5437 520 c-9 -61 -21 -310 -15 -310 7 0 31 311 26 335 -2 12 -7 1
-11 -25z"/>
<path d="M5700 471 c0 -6 4 -13 10 -16 6 -3 7 1 4 9 -7 18 -14 21 -14 7z"/>
<path d="M5730 405 c0 -5 5 -17 10 -25 5 -8 10 -10 10 -5 0 6 -5 17 -10 25 -5
8 -10 11 -10 5z"/>
<path d="M2416 323 c-6 -14 -5 -15 5 -6 7 7 10 15 7 18 -3 3 -9 -2 -12 -12z"/>
<path d="M2606 144 c9 -126 23 -162 17 -44 -3 58 -9 109 -14 114 -5 5 -6 -26
-3 -70z"/>
<path d="M5811 204 c0 -11 3 -14 6 -6 3 7 2 16 -1 19 -3 4 -6 -2 -5 -13z"/>
<path d="M2371 174 c0 -11 3 -14 6 -6 3 7 2 16 -1 19 -3 4 -6 -2 -5 -13z"/>
<path d="M2361 124 c0 -11 3 -14 6 -6 3 7 2 16 -1 19 -3 4 -6 -2 -5 -13z"/>
<path d="M2351 84 c0 -11 3 -14 6 -6 3 7 2 16 -1 19 -3 4 -6 -2 -5 -13z"/>
</g>
</svg>
